<svg xmlns="http://www.w3.org/2000/svg" xmlns:xlink="http://www.w3.org/1999/xlink" fill="#ffffff" height="96.1" preserveAspectRatio="xMidYMid meet" version="1" viewBox="0.5 2.2 99.1 96.1" width="99.1" zoomAndPan="magnify"><g id="change1_1"><path d="M98.544,18.096c-0.786-0.953-1.957-1.505-3.194-1.505H24.671L21.269,5.163c-0.523-1.757-2.137-2.961-3.97-2.961H4.653 c-2.288,0-4.143,1.855-4.143,4.143s1.855,4.142,4.143,4.142h9.556l15.482,52.003c-1.678,3.077-3.27,7.482-1.465,11.172 c1.598,3.267,5.209,4.924,10.731,4.924c0.1,0,0.2-0.004,0.3-0.014c0.359-0.033,36.047-3.305,48.352-2.608 c1.794,0.096,3.348-1.277,3.45-3.081c0.102-1.803-1.278-3.348-3.082-3.448c-12.493-0.705-46.229,2.341-49.165,2.61 c-3.028-0.02-4.43-0.686-4.71-1.256c-0.312-0.635-0.09-1.835,0.435-3.193c0.088-0.005,0.175-0.006,0.265-0.017l54.068-6.54 c1.787-0.217,3.23-1.563,3.57-3.329l6.978-36.191C99.651,20.304,99.331,19.049,98.544,18.096z M68.533,38.191H51.528V24.876h17.005 V38.191z M32.271,42.115h15.333v15.57l-10.327,1.25L32.271,42.115z M51.528,42.115h17.005v13.038l-17.005,2.057V42.115z M87.767,38.191H72.458V24.876h17.876L87.767,38.191z M47.604,24.876v13.315H31.102l-3.964-13.315H47.604z M72.458,54.678V42.115 H87.01l-2.133,11.06L72.458,54.678z"/><circle cx="33.876" cy="90.056" r="8.277"/><circle cx="80.968" cy="90.056" r="8.277"/></g></svg>