<svg xmlns="http://www.w3.org/2000/svg" xmlns:xlink="http://www.w3.org/1999/xlink" fill="#ffffff" height="63.9" preserveAspectRatio="xMidYMid meet" version="1" viewBox="-0.0 0.0 100.0 63.9" width="100" zoomAndPan="magnify"><g id="change1_1"><path d="m40.592 41.293v-18.067c0-4.67 3.617-8.457 8.079-8.457h17.675v-4.307c0-5.777-4.478-10.462-9.996-10.462h-46.354c-5.519 0-9.996 4.685-9.996 10.463v22.354c0 5.777 4.477 10.463 9.996 10.463h7.649v12.352c0 0.682 0.936 1.162 1.422 0.59 3.645-4.314 7.287-8.627 10.933-12.941h10.825c-0.148-0.64-0.233-1.302-0.233-1.988z" fill="inherit"/></g><g id="change1_2"><path d="m45.178 26.205v20.168c0 4.211 3.263 7.627 7.289 7.627h19.21c2.658 3.145 5.313 6.289 7.97 9.434 0.354 0.42 1.036 0.068 1.036-0.428v-9.006h12.029c4.025 0 7.288-3.416 7.288-7.627v-20.168c0-4.212-3.263-7.629-7.288-7.629h-40.245c-4.026 0-7.289 3.416-7.289 7.629z" fill="inherit"/></g></svg>