<svg xmlns="http://www.w3.org/2000/svg" xmlns:xlink="http://www.w3.org/1999/xlink" fill="#ffffff" height="500" preserveAspectRatio="xMidYMid meet" version="1" viewBox="-0.3 0.0 320.7 500.0" width="320.7" zoomAndPan="magnify"><g id="change1_1"><path d="M50.3,359.3c0,60.5,49.2,109.8,109.8,109.8s109.8-49.2,109.8-109.8S220.6,249.5,160,249.5S50.3,298.8,50.3,359.3z M256.7,359.3c0,53.3-43.4,96.6-96.6,96.6s-96.6-43.4-96.6-96.6s43.4-96.6,96.6-96.6S256.7,306,256.7,359.3z"/><path d="M154.2,298l-15.8,32l-35.4,5.1c-2.5,0.4-4.5,2.1-5.3,4.5c-0.8,2.4-0.1,5,1.7,6.7l25.6,24.9l-6,35.2c-0.4,2.5,0.6,5,2.6,6.4 c1.1,0.8,2.5,1.3,3.9,1.3c1,0,2.1-0.2,3.1-0.8l31.6-16.6l31.6,16.6c2.2,1.2,4.9,1,6.9-0.5c2-1.5,3-4,2.6-6.4l-6-35.2l25.6-24.9 c1.8-1.7,2.4-4.4,1.7-6.7c-0.8-2.4-2.8-4.1-5.3-4.5l-35.4-5.1l-15.8-32C163.7,293.5,156.4,293.5,154.2,298z M171.5,338.9 c1,1.9,2.8,3.3,4.9,3.6l25.6,3.7l-18.5,18.1c-1.5,1.5-2.3,3.7-1.9,5.8l4.4,25.5l-22.9-12c-1.9-1-4.2-1-6.1,0l-22.9,12l4.4-25.5 c0.4-2.1-0.3-4.3-1.9-5.8L118,346.2l25.6-3.7c2.1-0.3,4-1.7,4.9-3.6l11.5-23.2L171.5,338.9z"/><path d="M319.2,3.2c-1.2-2-3.3-3.2-5.7-3.2h-96.1c-2.4,0-4.6,1.3-5.8,3.4L160,97.8L108.4,3.4C107.2,1.3,105,0,102.6,0h-96 C4.2,0,2.1,1.2,0.9,3.2c-1.2,2-1.2,4.5-0.1,6.5l100.5,183.6c-5.7,1.5-10,6.4-10,12.5v30.9c-42.9,24.1-71.9,70-71.9,122.6 C19.4,436.9,82.5,500,160,500c77.6,0,140.7-63.1,140.7-140.7c0-52.6-29.1-98.5-71.9-122.6v-30.9c0-6.1-4.3-11-10-12.5L319.3,9.7 C320.4,7.7,320.4,5.2,319.2,3.2z M221.4,13.1h33l-70.4,128.5l-16.5-30.2L221.4,13.1z M197,192.7h-33L65.7,13.1h33L197,192.7z M50.7,13.1L149,192.7h-33L17.7,13.1H50.7z M287.6,359.3c0,70.3-57.2,127.5-127.5,127.5c-70.3,0-127.5-57.2-127.5-127.5 S89.7,231.8,160,231.8C230.4,231.8,287.6,289,287.6,359.3z M160,218.7c-19.7,0-38.5,4.1-55.6,11.5v-24.3h7.6h96.1h7.6v24.3 C198.6,222.8,179.8,218.7,160,218.7z M208.1,185.6l-16.5-30.2l77.8-142.2h33L208.1,185.6z"/></g></svg>